<mxfile host="app.diagrams.net" modified="2022-07-05T08:32:23.180Z" agent="5.0 (Windows NT 10.0; Win64; x64) AppleWebKit/537.36 (KHTML, like Gecko) Chrome/103.0.5060.53 Safari/537.36 Edg/103.0.1264.37" etag="dyvyhzTavcYCZsMQa_6D" version="20.0.1" type="github">
  <diagram id="4WwHdesvsPSQsHbFwZGf" name="Page-1">
    <mxGraphModel dx="569" dy="302" grid="1" gridSize="10" guides="1" tooltips="1" connect="1" arrows="1" fold="1" page="1" pageScale="1" pageWidth="827" pageHeight="1169" math="0" shadow="0">
      <root>
        <mxCell id="0" />
        <mxCell id="1" parent="0" />
      </root>
    </mxGraphModel>
  </diagram>
</mxfile>
